<svg xmlns="http://www.w3.org/2000/svg" viewBox="0 0 172.07 171.99"><defs><style>.cls-1{fill:#fff;}</style></defs><g id="Capa_2" data-name="Capa 2"><g id="Capa_1-2" data-name="Capa 1"><path class="cls-1" d="M172.05,84.89c-.2,21.94-6.83,40.16-19.83,56.06-3.05,5.71-10.36.63-5.49-4,8.92-10.46,14.36-22.55,17.16-36C180,30.69,89.92-22.59,35.83,24.9c-2,1.62-4.33,4.52-6.9,1.26s.6-5,2.68-6.62C84.65-26.69,173.32,14.75,172.05,84.89Z"/><path class="cls-1" d="M0,84.23a87.51,87.51,0,0,1,19.4-52.31c1.39-1.44,3-1.81,4.65-.49,4.37,4.16-6.95,13-8.16,18.1-40.39,72.86,54.75,151.2,118.72,99.06,1.87-1.65,4.88-3.51,6.77-.83,1.22,1.7.77,3.37-.72,4.65C85,199.13-1.76,156.65,0,84.23Z"/><path class="cls-1" d="M119.21,90.55c-13.55-9-10.45-24.39-33.32-24.32C63.45,66.79,66.58,80.81,54,90.09c-24.33,11.21-15,48,11.33,47.45,7,.05,13.94,0,20.91,0v0c7.35,0,14.7.13,22,0C133.23,137.39,142,101.49,119.21,90.55Zm6,26.27c-3.79,17.62-25.08,13.72-38.92,14-7,0-13.94.05-20.91,0-19.28.68-26.69-26.45-8.42-34.62,5.18-2.53,8.1-6.6,10.51-11.56a20.75,20.75,0,0,1,34.34-4.68C106.2,85.58,107.67,93.12,115,96,124,100.58,127.44,107.85,125.24,116.82Z"/><path class="cls-1" d="M119.49,69.7c-.1,15.56,24.32,15.27,23.9-.22C143.48,53.91,119.11,54.2,119.49,69.7Zm11.64,5.11c-6.64-.24-6.13-10.8.49-10.46C138.49,64.44,138,75.34,131.13,74.81Z"/><path class="cls-1" d="M56.89,46.32c-.46,15.39,24.09,15.84,23.9.34C81.2,31,57,30.92,56.89,46.32Zm6.73.44C63.25,40,74.05,39.35,74,46.4,74.42,53.22,63.8,53.21,63.62,46.76Z"/><path class="cls-1" d="M91.38,46.43c-.27,15.37,24.08,15.75,23.92.12C115.64,30.87,91.36,31.06,91.38,46.43Zm6.78-.09c.17-6.68,10.72-6.59,10.41.28C108.63,53.43,97.83,53,98.16,46.34Z"/><path class="cls-1" d="M29,69.26c-.65,16,24.07,15.83,23.91.29C53,54.4,29,53.85,29,69.26Zm6.69.38c-.2-7,10.62-6.73,10.41.08C46,76.3,35.53,76.39,35.67,69.64Z"/></g></g></svg>