<svg id="Capa_1" data-name="Capa 1" xmlns="http://www.w3.org/2000/svg" viewBox="0 0 388.34 171.99"><defs><style>.cls-1{fill:#105b63;}.cls-2{fill:#115b63;}.cls-3{fill:#115c63;}.cls-4{fill:#fff;}</style></defs><path class="cls-1" d="M183.8,97.83c-.2,22-6.83,40.16-19.84,56.06-3,5.71-10.35.63-5.48-4,8.92-10.47,14.36-22.56,17.16-36,16.12-70.29-74-123.57-128.07-76.08-2,1.62-4.32,4.52-6.89,1.26s.59-5,2.68-6.61C96.4-13.75,185.07,27.69,183.8,97.83Z" transform="translate(-11.75 -12.94)"/><path class="cls-1" d="M11.78,97.18a87.49,87.49,0,0,1,19.4-52.31c1.39-1.44,3-1.82,4.65-.5,4.37,4.16-6.95,13-8.17,18.1-40.38,72.86,54.76,151.2,118.73,99.06,1.87-1.64,4.88-3.51,6.76-.83,1.23,1.7.78,3.37-.72,4.65C96.71,212.07,10,169.59,11.78,97.18Z" transform="translate(-11.75 -12.94)"/><path class="cls-1" d="M131,103.5c-13.55-9-10.45-24.39-33.32-24.32C75.19,79.74,78.32,93.76,65.71,103c-24.33,11.21-15,48,11.33,47.45,7,0,13.94,0,20.91,0v0c7.35,0,14.7.13,22,0C145,150.34,153.76,114.44,131,103.5Zm6,26.27c-3.79,17.62-25.08,13.72-38.92,14-7,0-13.94,0-20.91,0-19.28.68-26.69-26.45-8.42-34.62,5.18-2.53,8.1-6.6,10.51-11.56a20.75,20.75,0,0,1,34.34-4.68c4.36,5.64,5.83,13.18,13.16,16.07C135.71,113.53,139.18,120.8,137,129.77Z" transform="translate(-11.75 -12.94)"/><path class="cls-2" d="M131.23,82.65c-.1,15.56,24.32,15.27,23.9-.22C155.22,66.86,130.85,67.15,131.23,82.65Zm11.64,5.11c-6.64-.24-6.13-10.8.49-10.46C150.23,77.39,149.76,88.29,142.87,87.76Z" transform="translate(-11.75 -12.94)"/><path class="cls-3" d="M68.63,59.27c-.46,15.39,24.09,15.84,23.9.34C92.94,44,68.77,43.87,68.63,59.27Zm6.73.44c-.37-6.79,10.43-7.41,10.41-.36C86.16,66.17,75.54,66.16,75.36,59.71Z" transform="translate(-11.75 -12.94)"/><path class="cls-2" d="M103.12,59.38c-.27,15.37,24.08,15.75,23.92.12C127.38,43.82,103.1,44,103.12,59.38Zm6.78-.09c.17-6.68,10.72-6.59,10.41.28C120.37,66.38,109.57,65.94,109.9,59.29Z" transform="translate(-11.75 -12.94)"/><path class="cls-2" d="M40.72,82.21c-.65,16,24.07,15.83,23.91.29C64.75,67.35,40.75,66.8,40.72,82.21Zm6.69.38c-.2-7,10.62-6.73,10.41.08C57.78,89.25,47.27,89.34,47.41,82.59Z" transform="translate(-11.75 -12.94)"/><path class="cls-4" d="M400.07,97.83c-.2,22-6.83,40.16-19.84,56.06-3,5.71-10.35.63-5.48-4,8.91-10.47,14.36-22.56,17.16-36C408,43.63,317.94-9.65,263.84,37.84c-2,1.62-4.32,4.52-6.89,1.26s.59-5,2.67-6.61C312.67-13.75,401.34,27.69,400.07,97.83Z" transform="translate(-11.75 -12.94)"/><path class="cls-4" d="M228,97.18a87.57,87.57,0,0,1,19.41-52.31c1.39-1.44,3-1.82,4.65-.5,4.37,4.16-6.95,13-8.17,18.1-40.38,72.86,54.76,151.2,118.73,99.06,1.87-1.64,4.88-3.51,6.76-.83,1.23,1.7.78,3.37-.72,4.65C313,212.07,226.26,169.59,228,97.18Z" transform="translate(-11.75 -12.94)"/><path class="cls-4" d="M347.22,103.5c-13.55-9-10.45-24.39-33.32-24.32C291.46,79.74,294.59,93.76,282,103c-24.33,11.21-15,48,11.33,47.45,7,0,13.94,0,20.91,0v0c7.35,0,14.7.13,22,0C361.24,150.34,370,114.44,347.22,103.5Zm6,26.27c-3.79,17.62-25.08,13.72-38.92,14-7,0-13.94,0-20.91,0-19.28.68-26.69-26.45-8.42-34.62,5.18-2.53,8.1-6.6,10.51-11.56a20.75,20.75,0,0,1,34.34-4.68c4.36,5.64,5.83,13.18,13.16,16.07C352,113.53,355.45,120.8,353.25,129.77Z" transform="translate(-11.75 -12.94)"/><path class="cls-4" d="M347.5,82.65c-.1,15.56,24.32,15.27,23.9-.22C371.49,66.86,347.12,67.15,347.5,82.65Zm11.64,5.11c-6.64-.24-6.13-10.8.49-10.46C366.5,77.39,366,88.29,359.14,87.76Z" transform="translate(-11.75 -12.94)"/><path class="cls-4" d="M284.9,59.27c-.46,15.39,24.09,15.84,23.9.34C309.21,44,285,43.87,284.9,59.27Zm6.73.44c-.37-6.79,10.43-7.41,10.41-.36C302.43,66.17,291.81,66.16,291.63,59.71Z" transform="translate(-11.75 -12.94)"/><path class="cls-4" d="M319.39,59.38c-.27,15.37,24.08,15.75,23.92.12C343.65,43.82,319.37,44,319.39,59.38Zm6.78-.09c.17-6.68,10.72-6.59,10.41.28C336.64,66.38,325.84,65.94,326.17,59.29Z" transform="translate(-11.75 -12.94)"/><path class="cls-4" d="M257,82.21c-.65,16,24.07,15.83,23.91.29C281,67.35,257,66.8,257,82.21Zm6.69.38c-.2-7,10.62-6.73,10.41.08C274.05,89.25,263.54,89.34,263.68,82.59Z" transform="translate(-11.75 -12.94)"/></svg>